# xmcd
#
# Track frame offsets:
#	150
#	12312
#	25217
#	36075
#	49275
#	67737
#	81437
#	94537
#	108425
#	123262
#
# Disc length: 1856 seconds
# Revision: 0
# Processed by: cddbd v1.5.2PL0 Copyright (c) Steve Scherf et al.
# Submitted via: dBpowerAMP V12.0
#
DISCID=77073e0a
DTITLE=Marc Bell - Marc Bell and Countryband
DYEAR=1990
DGENRE=Country
TTITLE0=Little Joe
TTITLE1=Am Rio Grande sinkt die Sonne
TTITLE2=Auf dem Highway nach Las Vegas
TTITLE3=Irgendwo
TTITLE4=Rodeo Man
TTITLE5=Bleib´ neben mir
TTITLE6=Du spielst gerne mit dem Feuer
TTITLE7=Sag´ nochmal ich liebe dich
TTITLE8=Ich bin der Playboy
TTITLE9=Ich habe dem Wind erzählt
EXTD=
EXTT0=
EXTT1=
EXTT2=
EXTT3=
EXTT4=
EXTT5=
EXTT6=
EXTT7=
EXTT8=
EXTT9=
PLAYORDER=
